<svg width="16" height="15" viewBox="0 0 16 15" fill="none" xmlns="http://www.w3.org/2000/svg">
<g clip-path="url(#clip0)">
<path d="M14.7971 6.23596C14.4754 5.91363 14.0473 5.73608 13.5921 5.73608C13.1388 5.73608 12.7126 5.91237 12.3915 6.23217C11.728 6.89448 11.7267 7.97424 12.389 8.63906C12.7107 8.96139 13.1382 9.13894 13.5927 9.13894C14.046 9.13894 14.4729 8.96265 14.7939 8.64159C15.4575 7.97928 15.4588 6.90081 14.7971 6.23599L14.7971 6.23596Z" fill="black"/>
<path d="M9.47165 0.821723L9.36966 5.806C9.10902 5.77515 8.8465 5.75941 8.5846 5.75941C8.10109 5.75941 7.63397 5.81356 7.19578 5.92121C6.52656 6.08489 5.93666 6.34553 5.44244 6.6962C5.0477 6.97636 4.83303 7.23259 4.75873 7.32955L4.56294 7.58577L4.59442 7.60906C4.56231 7.67706 4.53524 7.74757 4.51384 7.8206L2.15869 14.6325L3.73385 15.2293L5.79696 10.2024L7.81285 15.2904L9.38675 14.761L7.46724 8.95633C7.58182 8.9066 7.72599 8.85497 7.90226 8.81216C8.10875 8.7618 8.33666 8.73598 8.57967 8.73598C8.99896 8.73598 9.3301 8.81153 9.39747 8.82853L9.56115 13.52L11.0324 13.5086L11.1483 7.20358V7.19477L10.9147 0.810425L9.47165 0.821723Z" fill="black"/>
</g>
<defs>
<clipPath id="clip0">
<rect width="15" height="15" fill="white" transform="translate(0.664551)"/>
</clipPath>
</defs>
</svg>
