<svg width="16" height="15" viewBox="0 0 16 15" fill="none" xmlns="http://www.w3.org/2000/svg">
<g clip-path="url(#clip0)">
<path d="M8.97355 13.8043C8.97859 13.8836 9.03211 13.945 9.09697 13.945H14.5969C14.6618 13.945 14.7159 13.8836 14.721 13.8043L15.2745 5.97485H8.41943L8.97355 13.8043ZM13.2217 11.4514L13.4226 7.48193H13.4232C13.4276 7.3894 13.4616 7.30231 13.5183 7.24089C13.5744 7.17946 13.6487 7.14836 13.7236 7.15458C13.8798 7.16624 13.9982 7.33264 13.9887 7.52549L13.7878 11.4949C13.7784 11.6792 13.655 11.8231 13.5051 11.8231C13.4988 11.8231 13.4931 11.8231 13.4874 11.8223C13.4119 11.8168 13.342 11.7741 13.2922 11.7049C13.2425 11.6349 13.2173 11.5439 13.2223 11.4514L13.2217 11.4514ZM11.495 7.49109C11.495 7.29747 11.6216 7.14118 11.7784 7.14118C11.9352 7.14118 12.0618 7.29747 12.0618 7.49109V11.5344C12.0618 11.728 11.9352 11.8843 11.7784 11.8843C11.6216 11.8843 11.495 11.728 11.495 11.5344V7.49109ZM9.93708 7.1544C10.0932 7.14274 10.228 7.28892 10.2381 7.48175L10.439 11.4512C10.4434 11.5437 10.4182 11.6347 10.3684 11.7047C10.3187 11.7739 10.2488 11.8166 10.1739 11.8221C10.1676 11.8229 10.1619 11.8229 10.1562 11.8229H10.1556C10.0064 11.8229 9.8823 11.679 9.87285 11.4947L9.67197 7.5253C9.66756 7.43277 9.69275 7.34179 9.7425 7.27181C9.79225 7.20261 9.86215 7.15984 9.93708 7.1544L9.93708 7.1544Z" fill="black"/>
<path d="M8.37028 5.27507H15.3243L15.3917 4.3031H8.30225L8.37028 5.27507Z" fill="black"/>
<path d="M4.30109 1.05505C4.20698 1.05505 4.11676 1.09316 4.05143 1.1608C3.98532 1.22768 3.94954 1.31865 3.9511 1.41273V8.1909H4.65107V1.41273C4.65263 1.31865 4.61685 1.22767 4.55074 1.1608C4.48541 1.09316 4.39519 1.05505 4.30108 1.05505H4.30109Z" fill="black"/>
<path d="M1.42398 9.39687V9.82375H7.25716V9.39687C7.25716 9.11227 7.00595 8.89066 6.72129 8.89066H1.92724C1.79268 8.8891 1.66358 8.94198 1.56869 9.03762C1.4738 9.13248 1.42169 9.26234 1.42403 9.39686L1.42398 9.39687Z" fill="black"/>
<path d="M5.35122 12.6231C5.35122 12.4295 5.50755 12.2732 5.70121 12.2732C5.89487 12.2732 6.0512 12.4295 6.0512 12.6231V13.945H7.66737L6.95183 10.5236H1.65304L0.9375 13.945H5.35126L5.35122 12.6231Z" fill="black"/>
</g>
<defs>
<clipPath id="clip0">
<rect width="15" height="14" fill="white" transform="translate(0.664551 0.5)"/>
</clipPath>
</defs>
</svg>
