<svg width="24" height="25" viewBox="0 0 24 25" fill="none" xmlns="http://www.w3.org/2000/svg">
<path d="M11.99 2.15439C6.47 2.15439 2 6.63439 2 12.1544C2 17.6744 6.47 22.1544 11.99 22.1544C17.52 22.1544 22 17.6744 22 12.1544C22 6.63439 17.52 2.15439 11.99 2.15439ZM12 20.1544C7.58 20.1544 4 16.5744 4 12.1544C4 7.73439 7.58 4.15439 12 4.15439C16.42 4.15439 20 7.73439 20 12.1544C20 16.5744 16.42 20.1544 12 20.1544ZM12.5 7.15439H11V13.1544L16.25 16.3044L17 15.0744L12.5 12.4044V7.15439Z" fill="black"/>
</svg>
