<svg width="16" height="15" viewBox="0 0 16 15" fill="none" xmlns="http://www.w3.org/2000/svg">
<g clip-path="url(#clip0)">
<path d="M14.5695 2.57975C13.9396 2.32487 13.2347 2.65475 13.0243 3.29987L11.5695 7.77002C11.8542 7.78526 12.1396 7.82979 12.3945 7.9499C12.6646 8.05479 12.9042 8.20478 13.0993 8.38466L15.1695 4.16936C15.4695 3.55471 15.1847 2.81995 14.5695 2.57966V2.57975Z" fill="black"/>
<path d="M10.4444 7.87492L10.4743 7.78468C9.51455 7.58956 8.83961 7.1548 8.71946 6.53956C8.56946 5.84932 9.1097 5.11456 10.0695 4.48471C10.5945 4.15483 10.5347 3.37495 9.94935 3.14995C9.13959 2.86519 8.23965 2.69995 7.2945 2.69995C3.8445 2.69995 1.0542 4.85965 1.0542 7.51525C1.0542 10.1701 3.8445 12.3153 7.2945 12.3153C7.86462 12.3153 8.4195 12.2555 8.9445 12.1354C8.95973 11.9555 9.0195 11.7756 9.10974 11.6256C9.25974 11.3707 9.2445 11.1756 9.18474 10.7555C9.12497 10.3354 9.06462 9.82561 9.30485 9.25549C9.51461 8.73049 9.90485 8.31037 10.3847 8.05549L10.4444 7.87492ZM2.83958 8.3548C2.41946 8.3548 2.08958 8.00968 2.08958 7.6048C2.08958 7.19992 2.4347 6.83956 2.83958 6.83956C3.2597 6.83956 3.60482 7.18468 3.60482 7.6048C3.60482 8.02492 3.2597 8.3548 2.83958 8.3548ZM4.48958 4.57495C4.9097 4.57495 5.23958 4.92006 5.23958 5.32494C5.23958 5.72983 4.89446 6.07494 4.48958 6.07494C4.0847 6.07494 3.72434 5.72983 3.72434 5.32494C3.72434 4.92006 4.06946 4.57495 4.48958 4.57495ZM4.6097 10.5298C4.18958 10.5298 3.8597 10.1847 3.8597 9.7798C3.8597 9.35968 4.20482 9.0298 4.6097 9.0298C5.02982 9.0298 5.3597 9.37492 5.3597 9.7798C5.37435 10.1999 5.02982 10.5298 4.6097 10.5298ZM7.2944 3.6451C7.71452 3.6451 8.0444 3.99022 8.0444 4.41034C8.0444 4.83046 7.69928 5.16034 7.2944 5.16034C6.88952 5.16034 6.52916 4.81522 6.52916 4.41034C6.54439 3.99022 6.8895 3.6451 7.2944 3.6451ZM7.5194 11.0402C7.09928 11.0402 6.7694 10.6951 6.7694 10.2902C6.7694 9.87013 7.11452 9.54025 7.5194 9.54025C7.93952 9.54025 8.28464 9.88537 8.28464 10.2902C8.28464 10.6951 7.93952 11.0402 7.5194 11.0402Z" fill="black"/>
<path d="M12.005 8.90965C11.3147 8.63953 10.5348 8.96942 10.2647 9.64441C9.96465 10.3792 10.5945 11.1444 10.0098 12.1493C9.90489 12.3291 10.0549 12.5541 10.2647 12.509C11.7049 12.2243 12.455 11.3541 12.7397 10.6493C13.0098 9.95967 12.6799 9.17979 12.0049 8.90962L12.005 8.90965Z" fill="black"/>
</g>
<defs>
<clipPath id="clip0">
<rect width="15" height="15" fill="white" transform="translate(0.664551)"/>
</clipPath>
</defs>
</svg>
