<svg width="16" height="15" viewBox="0 0 16 15" fill="none" xmlns="http://www.w3.org/2000/svg">
<g clip-path="url(#clip0)">
<path d="M9.13044 9.08673H10.9132V14.4009C10.9132 14.7318 11.1814 14.9999 11.5123 14.9999C11.8432 14.9999 12.1113 14.7318 12.1113 14.4009V0C9.4139 0 9.13037 9.08673 9.13037 9.08673H9.13044Z" fill="black"/>
<path d="M7.91294 4.32683H7.28218V0H6.66155V4.32683H6.0308V0H5.41017V4.32683H4.77941V0H4.21753V4.32216C4.21753 5.31693 4.90029 6.14957 5.82212 6.38331L5.37099 14.3888C5.37099 14.7265 6.07132 15 6.34618 15C6.62036 15 7.32136 14.7265 7.32136 14.3888L6.87023 6.38331C7.79206 6.14964 8.47482 5.31695 8.47482 4.32216V0H7.91227V4.32683H7.91294Z" fill="black"/>
</g>
<defs>
<clipPath id="clip0">
<rect width="15" height="15" fill="white" transform="translate(0.664551)"/>
</clipPath>
</defs>
</svg>
