<svg width="16" height="15" viewBox="0 0 16 15" fill="none" xmlns="http://www.w3.org/2000/svg">
<path d="M10.3677 13.1508C10.5886 13.1508 10.7661 12.9727 10.7661 12.7524V12.1418C10.7661 11.9233 10.588 11.7434 10.3677 11.7434L5.96142 11.7428C5.74051 11.7428 5.56299 11.9227 5.56299 12.1412V12.7518C5.56299 12.9727 5.74111 13.1502 5.96142 13.1502H6.5872V13.4567L6.02998 13.4572C5.91221 13.4572 5.81553 13.5539 5.81553 13.6717C5.81553 13.7895 5.91221 13.8861 6.02998 13.8861H6.5872V14.0256C6.5872 14.325 6.83154 14.5717 7.13388 14.5717H9.19518C9.49752 14.5717 9.74185 14.325 9.74185 14.025V13.8856H10.2991C10.4168 13.8856 10.5135 13.7889 10.5135 13.6711C10.5135 13.5533 10.4168 13.4567 10.2991 13.4567H9.74185V13.1502L10.3677 13.1508Z" fill="#191919"/>
<path d="M11.0809 3.15652C10.1422 2.31628 8.9293 1.93073 7.6654 2.07019C5.62105 2.29753 3.99925 3.94924 3.80815 6.00004C3.68393 7.34359 4.17027 8.64679 5.14116 9.57664C5.69604 10.104 6.04761 10.5798 6.1314 11.3145H10.1943C10.2798 10.6138 10.6355 10.1362 11.2789 9.48634C12.0933 8.66368 12.541 7.57264 12.541 6.41779C12.5404 5.17501 12.009 3.98554 11.0808 3.15649L11.0809 3.15652ZM9.83403 7.07182L7.12113 8.75632C7.08656 8.778 7.04847 8.78854 7.00746 8.78854C6.95824 8.78854 6.90902 8.77155 6.868 8.73698C6.7971 8.67487 6.77367 8.57409 6.81234 8.48855L7.4721 6.9845L6.51409 6.52395C6.44554 6.48938 6.40042 6.42317 6.39398 6.34817C6.38753 6.27083 6.4221 6.19817 6.48421 6.15305L9.01891 4.3958C9.09391 4.34424 9.1947 4.34424 9.2697 4.3999C9.34235 4.45322 9.37458 4.5499 9.3447 4.63779L8.83669 6.22569L9.81462 6.69678C9.88552 6.73135 9.93239 6.7999 9.93473 6.879C9.93884 6.95575 9.90016 7.03075 9.83395 7.07178L9.83403 7.07182Z" fill="#191919"/>
<path d="M8.37911 1.24808V0.6428C8.37911 0.524441 8.28301 0.428345 8.16465 0.428345C8.04629 0.428345 7.9502 0.524438 7.9502 0.6428V1.24808C7.9502 1.36644 8.04629 1.46253 8.16465 1.46253C8.28301 1.46253 8.37911 1.36644 8.37911 1.24808Z" fill="#191919"/>
<path d="M3.89531 2.92747L3.46757 2.49973C3.38378 2.41594 3.24844 2.41594 3.16465 2.49973C3.08086 2.58352 3.08086 2.71887 3.16465 2.80266L3.59239 3.2304C3.63399 3.272 3.68907 3.29309 3.74414 3.29309C3.79922 3.29309 3.85371 3.272 3.8959 3.2304C3.97851 3.14719 3.97851 3.01126 3.89531 2.92747H3.89531Z" fill="#191919"/>
<path d="M1.71104 7.71456H2.31632C2.43468 7.71456 2.53077 7.61846 2.53077 7.5001C2.53077 7.38174 2.43468 7.28564 2.31632 7.28564H1.71104C1.59268 7.28564 1.49658 7.38174 1.49658 7.5001C1.49658 7.61846 1.59268 7.71456 1.71104 7.71456Z" fill="#191919"/>
<path d="M14.6181 7.71456C14.7364 7.71456 14.8325 7.61846 14.8325 7.5001C14.8325 7.38174 14.7364 7.28564 14.6181 7.28564H14.0128C13.8944 7.28564 13.7983 7.38174 13.7983 7.5001C13.7983 7.61846 13.8944 7.71456 14.0128 7.71456H14.6181Z" fill="#191919"/>
<path d="M12.7373 3.23089L13.1651 2.80314C13.2489 2.71936 13.2489 2.58401 13.1651 2.50022C13.0813 2.41643 12.946 2.41643 12.8622 2.50022L12.4344 2.92796C12.3506 3.01175 12.3506 3.1471 12.4344 3.23089C12.476 3.27249 12.5311 3.29358 12.5862 3.29358C12.6407 3.29358 12.6952 3.27249 12.7373 3.23089Z" fill="#191919"/>
</svg>
