<svg width="16" height="15" viewBox="0 0 16 15" fill="none" xmlns="http://www.w3.org/2000/svg">
<path d="M13.8963 7.66072L12.6038 5.68465C12.5467 5.57032 12.5088 5.43744 12.4895 5.30456C12.2423 2.70039 10.0761 0.667114 7.41553 0.667114C4.60269 0.667114 2.34155 2.94764 2.34155 5.74109C2.34155 7.41363 3.13958 9.04747 4.37483 10.1121C4.52701 10.245 4.62204 10.4165 4.62204 10.6065V13.5144C4.62204 13.7423 4.79278 13.9323 5.02144 13.9516L9.39244 14.3317C9.6582 14.351 9.86755 14.1417 9.86755 13.8945L9.86681 11.8418C9.86681 11.7089 9.98113 11.5946 10.114 11.5946H11.6537C12.1288 11.5946 12.5089 11.2145 12.5089 10.7394V8.70611C12.5089 8.61109 12.5846 8.53537 12.6796 8.53537H13.4205C13.8577 8.53463 14.1428 8.04095 13.8963 7.66087L13.8963 7.66072ZM4.71698 5.53242C4.69768 5.76032 4.48908 5.91251 4.27972 5.91251H4.26042C4.03252 5.89321 3.84248 5.68461 3.88034 5.45671C3.97536 4.60151 4.33614 3.74632 5.00129 3.10055C5.66644 2.43539 6.50233 2.07462 7.35745 1.97959C7.58535 1.96029 7.7947 2.13178 7.81325 2.35968V2.37898C7.83255 2.60688 7.66107 2.79693 7.43317 2.81623C6.76801 2.89196 6.10286 3.17701 5.58989 3.69074C5.07767 4.20222 4.77404 4.86738 4.71687 5.53253L4.71698 5.53242ZM7.9099 4.67723C7.58698 4.71509 7.26406 4.86727 7.01685 5.11448C6.76964 5.36169 6.61745 5.68461 6.5796 6.00753C6.56029 6.23543 6.3517 6.38762 6.14234 6.36831C5.91444 6.34901 5.7244 6.14041 5.76226 5.91251C5.81942 5.39954 6.04732 4.90513 6.44672 4.52504C6.84611 4.12564 7.32122 3.91705 7.83419 3.84058C8.06209 3.82128 8.27144 3.99276 8.28999 4.22067C8.28999 4.46787 8.13781 4.65792 7.9099 4.67721V4.67723Z" fill="black"/>
</svg>
