<svg width="16" height="16" viewBox="0 0 16 16" fill="none" xmlns="http://www.w3.org/2000/svg">
<g clip-path="url(#clip0)">
<path d="M15.4929 9.68877V7.31199L13.88 7.19371C13.7572 6.70706 13.5643 6.24148 13.3059 5.80529L14.5256 4.39728L12.8456 2.71656L11.4376 3.93623C11.0014 3.67859 10.5366 3.48574 10.0492 3.36293L9.93168 1.75H7.55491L7.43663 3.36293C6.94998 3.48572 6.4844 3.67858 6.04821 3.93699L4.6402 2.71656L2.96024 4.39653L4.1799 5.80454C3.92227 6.24073 3.72941 6.7063 3.60584 7.19296L1.99292 7.31124V9.68801L3.60584 9.80629C3.72864 10.2929 3.92149 10.7585 4.1799 11.1947L2.95948 12.6027L4.63945 14.2827L6.04746 13.063C6.4844 13.3214 6.94922 13.5143 7.43663 13.6371L7.55415 15.25H9.93093L10.0492 13.6371C10.5359 13.5143 11.0014 13.3214 11.4376 13.063L12.8456 14.2834L14.5256 12.6035L13.3059 11.1955C13.5636 10.7593 13.7564 10.2937 13.88 9.80704L15.4929 9.68877ZM8.74291 12.3571C6.61704 12.3571 4.88576 10.6259 4.88576 8.49999C4.88576 6.37404 6.61696 4.64284 8.74291 4.64284C10.8689 4.64284 12.6001 6.37404 12.6001 8.49999C12.6001 10.6259 10.8689 12.3571 8.74291 12.3571Z" fill="#191919"/>
<path d="M9.58442 8.55254C9.58668 8.53596 9.58668 8.51638 9.58668 8.4998C9.58668 8.16456 9.3893 7.87302 9.10453 7.74043V5.36597H8.38131V7.74043C8.09654 7.87302 7.89917 8.16456 7.89917 8.4998C7.89917 8.96538 8.27734 9.34356 8.74292 9.34356C8.92373 9.34356 9.09473 9.28555 9.23186 9.1846L10.7371 10.0216L11.0881 9.38951L9.58442 8.5533V8.55255L9.58442 8.55254Z" fill="#191919"/>
</g>
<defs>
<clipPath id="clip0">
<rect width="15" height="15" fill="white" transform="translate(0.74292 0.5)"/>
</clipPath>
</defs>
</svg>
