<svg width="16" height="15" viewBox="0 0 16 15" fill="none" xmlns="http://www.w3.org/2000/svg">
<g clip-path="url(#clip0)">
<path d="M8.16789 1.59438C8.16789 1.59438 4.73904 4.28028 4.63989 7.26738C7.54734 8.50078 8.15078 11.2764 8.16789 13.166C8.18488 11.294 8.77609 8.55048 11.6149 7.30068C11.5428 4.27848 8.16789 1.59363 8.16789 1.59363V1.59438ZM2.71224 4.43208C2.71224 4.43208 2.53294 5.45571 2.62376 6.70383C3.26888 6.81867 3.85188 6.95226 4.34996 7.17141C4.36754 6.42903 4.5855 5.70657 4.90308 5.03976C3.72476 4.57393 2.71233 4.43272 2.71233 4.43272L2.71224 4.43208ZM13.5427 4.43208C13.5427 4.43208 12.5308 4.57329 11.3519 5.03911C11.6695 5.70591 11.8869 6.42837 11.9045 7.17076C12.4025 6.95163 12.9562 6.81802 13.6013 6.70318C13.6921 5.45514 13.5421 4.43143 13.5421 4.43143L13.5427 4.43208ZM0.873535 6.85023V7.89436C0.873535 10.9389 3.23078 13.3899 6.15924 13.3899H7.94994C7.92943 10.8974 6.89407 6.84736 0.873535 6.85081V6.85023ZM15.4534 6.85023C9.43284 6.84671 8.39754 10.8968 8.37699 13.3893H10.1677C13.0961 13.3893 15.4534 10.9383 15.4534 7.89378V6.84964V6.85023Z" fill="#191919"/>
</g>
<defs>
<clipPath id="clip0">
<rect width="15" height="15" fill="white" transform="translate(0.664551)"/>
</clipPath>
</defs>
</svg>
