<svg width="16" height="15" viewBox="0 0 16 15" fill="none" xmlns="http://www.w3.org/2000/svg">
<path d="M11.568 2.60253C10.6678 1.7059 9.21172 1.7059 8.31222 2.60253L8.16575 2.73041L8.03787 2.60253C7.13266 1.73946 5.70443 1.75661 4.81993 2.64039C3.93544 3.52488 3.919 4.95316 4.78206 5.85833L4.90995 5.98621C4.90995 5.98621 7.25125 7.92532 8.16575 9.16903C9.09883 7.92517 11.4215 5.98695 11.4215 5.98695L11.5494 5.85906V5.85835C11.9867 5.4304 12.2346 4.84596 12.2382 4.2344C12.241 3.62282 12.0002 3.03554 11.568 2.60258L11.568 2.60253Z" fill="black"/>
<path d="M4.07276 10.7931C4.23423 10.9553 4.32496 11.1746 4.32496 11.4039V13.07H7.25136V9.42483C7.25064 9.19621 7.15991 8.97759 6.99916 8.81613L3.87121 6.17268C3.8462 6.14767 3.82334 6.12052 3.8019 6.09266L3.7619 6.0505C3.49254 5.78186 3.05744 5.78186 2.78881 6.0505C2.52019 6.31915 2.52017 6.75496 2.78881 7.02359L4.8629 9.10114C4.91862 9.15687 4.91862 9.24832 4.8629 9.30405C4.80646 9.36049 4.71572 9.36049 4.65927 9.30405L2.58373 7.22997C2.26009 6.90419 2.20792 6.39763 2.45727 6.01255C2.70733 5.62746 3.19172 5.46885 3.6204 5.63176V5.56388V2.84033C3.59968 2.3788 3.21888 2.01514 2.75662 2.01514C2.29438 2.01514 1.91356 2.3788 1.89213 2.84033L1.70923 7.6729C1.70923 7.90152 1.79996 8.12157 1.96143 8.28375L4.07276 10.7931Z" fill="black"/>
<path d="M12.0067 13.0701V11.404C12.0067 11.1746 12.0975 10.9553 12.2589 10.7931L14.368 8.27973C14.5294 8.11755 14.6202 7.89822 14.6202 7.66888L14.443 2.84069C14.4215 2.37916 14.0407 2.0155 13.5785 2.0155C13.1162 2.0155 12.7354 2.37916 12.7147 2.84069V5.56553V5.6334C12.8254 5.59125 12.9433 5.56982 13.0619 5.56982C13.4549 5.57053 13.8085 5.80773 13.9585 6.17139C14.1086 6.53434 14.0257 6.95228 13.7478 7.23022L11.6759 9.30064C11.6195 9.35637 11.5287 9.35637 11.4723 9.30064C11.4166 9.2442 11.4166 9.15347 11.4723 9.09773L13.5449 7.02511C13.8135 6.75647 13.8135 6.32066 13.5449 6.05203C13.2763 5.78341 12.8404 5.78339 12.5718 6.05203L12.5318 6.09419C12.5104 6.12276 12.4868 6.1492 12.4618 6.17492L9.3311 8.81764C9.17106 8.9791 9.08104 9.19772 9.08032 9.42492V13.0686H12.0067L12.0067 13.0701Z" fill="black"/>
</svg>
