<svg width="16" height="15" viewBox="0 0 16 15" fill="none" xmlns="http://www.w3.org/2000/svg">
<g clip-path="url(#clip0)">
<path d="M7.50793 3.82919C7.50793 5.20389 6.39357 6.31842 5.01831 6.31842C3.64386 6.31842 2.52954 5.20385 2.52954 3.82919C2.52954 2.45453 3.6439 1.33997 5.01831 1.33997C6.39359 1.33997 7.50793 2.45453 7.50793 3.82919Z" fill="black"/>
<path d="M5.95476 6.99902H4.10415C2.76376 6.99902 1.63602 7.99888 1.48732 9.33952L1.2106 11.4672C1.16822 11.744 1.35934 11.9992 1.63606 12.0632C2.69973 12.2976 3.84807 12.404 5.0181 12.404C5.50756 12.404 5.9754 12.3823 6.42248 12.34L6.65683 10.425C6.7848 9.42514 7.27341 8.57405 7.99722 7.97812C7.52854 7.38219 6.76319 6.99903 5.95464 6.99903L5.95476 6.99902Z" fill="black"/>
<path d="M12.2301 8.255H10.3795C9.03915 8.255 7.9114 9.25486 7.7627 10.5738L7.50759 12.7232C7.46521 13 7.65634 13.2768 7.93306 13.3192C8.99673 13.5536 10.1451 13.6599 11.3151 13.6599C12.5067 13.6599 13.6335 13.5319 14.6971 13.3192C14.9739 13.2552 15.1442 13 15.1226 12.7232L14.8675 10.5738C14.6971 9.25478 13.5703 8.255 12.23 8.255H12.2301Z" fill="black"/>
<path d="M13.8043 5.08432C13.8043 6.45985 12.69 7.57439 11.3156 7.57439C9.94114 7.57439 8.82678 6.45982 8.82678 5.08432C8.82678 3.70961 9.94114 2.59509 11.3156 2.59509C12.69 2.59509 13.8043 3.70966 13.8043 5.08432Z" fill="black"/>
</g>
<defs>
<clipPath id="clip0">
<rect width="15" height="15" fill="white" transform="translate(0.664551)"/>
</clipPath>
</defs>
</svg>
